<svg width="1024" height="1024" viewBox="0 0 1024 1024" xmlns="http://www.w3.org/2000/svg">
  <!-- Transparent background for adaptive icon -->
  
  <!-- Heart with infinity symbol - centered -->
  <g transform="translate(512, 450)">
    <!-- Main heart shape -->
    <path d="M0 -180 
             C-120 -300 -300 -300 -360 -120
             C-420 60 -300 240 0 420
             C300 240 420 60 360 -120
             C300 -300 120 -300 0 -180Z" 
          fill="white"/>
    
    <!-- Infinity symbol inside -->
    <path d="M-150 90 
             C-210 30 -210 -30 -150 -90
             C-90 -150 -30 -150 30 -90
             C90 -30 90 30 30 90
             C-30 150 -90 150 -150 90
             M150 90 
             C90 30 90 -30 150 -90
             C210 -150 270 -150 330 -90
             C390 -30 390 30 330 90
             C270 150 210 150 150 90" 
          fill="none" 
          stroke="#10B981" 
          stroke-width="36"
          stroke-linecap="round"
          transform="translate(-90, 60) scale(0.6)"/>
  </g>
</svg>
